<?xml version="1.0" standalone="no"?>
<!DOCTYPE svg PUBLIC "-//W3C//DTD SVG 20010904//EN"
 "http://www.w3.org/TR/2001/REC-SVG-20010904/DTD/svg10.dtd">
<svg version="1.0" xmlns="http://www.w3.org/2000/svg"
 width="471.000000pt" height="472.000000pt" viewBox="0 0 471.000000 472.000000"
 preserveAspectRatio="xMidYMid meet">

<g transform="translate(0.000000,472.000000) scale(0.100000,-0.100000)"
fill="#ffd034" stroke="none">
<path d="M1152 3530 c-623 -218 -1135 -399 -1137 -402 -7 -6 -102 28 1199
-427 583 -204 1066 -371 1074 -371 8 0 471 160 1029 355 558 195 1019 355
1024 355 5 0 9 -115 9 -281 l0 -281 -30 -34 c-69 -79 -60 -190 22 -259 l32
-27 -72 -144 c-40 -79 -72 -146 -72 -149 0 -3 106 -5 235 -5 129 0 235 3 235
6 0 3 -34 69 -75 146 -41 77 -75 144 -75 148 0 5 9 14 20 20 34 18 70 92 70
145 0 48 -39 135 -60 135 -6 0 -10 128 -10 334 l0 334 -42 15 c-24 8 -457 160
-963 337 -506 177 -1001 350 -1100 384 l-180 63 -1133 -397z"/>
<path d="M762 1878 l3 -693 375 -107 c632 -181 793 -218 1034 -239 252 -23
501 15 932 141 132 38 344 100 472 137 l232 67 0 693 c0 381 -2 693 -5 693 -2
0 -314 -109 -692 -241 l-688 -241 -101 -5 c-57 -3 -123 -1 -152 6 -29 6 -354
117 -724 246 -369 129 -675 235 -679 235 -5 0 -8 -301 -7 -692z"/>
</g>
</svg>
