<?xml version="1.0" standalone="no"?>
<!DOCTYPE svg PUBLIC "-//W3C//DTD SVG 20010904//EN"
 "http://www.w3.org/TR/2001/REC-SVG-20010904/DTD/svg10.dtd">
<svg version="1.0" xmlns="http://www.w3.org/2000/svg"
 width="448.000000pt" height="448.000000pt" viewBox="0 0 448.000000 448.000000"
 preserveAspectRatio="xMidYMid meet">

<g transform="translate(0.000000,448.000000) scale(0.100000,-0.100000)"
fill="#ffd034" stroke="none">
<path d="M1335 4221 c-54 -14 -112 -49 -148 -92 -57 -66 -67 -110 -67 -296 l0
-163 -452 0 -453 0 -50 -24 c-27 -12 -69 -43 -92 -69 -78 -85 -73 22 -73
-1567 0 -1228 2 -1423 15 -1467 18 -60 80 -135 139 -166 l41 -22 2040 0 2040
0 41 22 c58 31 103 79 131 139 l23 51 -2 1454 c-3 1423 -3 1455 -23 1494 -10
21 -37 57 -58 78 -73 73 -59 71 -572 77 l-460 5 -5 180 c-6 207 -13 231 -96
304 -84 74 -42 71 -1018 70 -479 -1 -884 -4 -901 -8z m1743 -408 l-3 -138
-837 -3 -838 -2 0 140 0 140 840 0 841 0 -3 -137z m1112 -1108 l0 -135 -277
-2 -278 -3 -5 -377 -5 -377 -29 -30 c-41 -43 -79 -51 -241 -51 -162 0 -200 8
-241 51 l-29 30 -5 377 -5 377 -837 3 -838 2 0 -363 c0 -405 -1 -410 -71 -452
-31 -18 -52 -20 -214 -20 -172 0 -181 1 -213 23 -17 13 -38 33 -45 45 -9 16
-13 123 -17 392 l-5 370 -277 3 -278 2 0 135 0 135 1955 0 1955 0 0 -135z"/>
</g>
</svg>
