<svg version="1.0" xmlns="http://www.w3.org/2000/svg"
 width="920.000000pt" height="980.000000pt" viewBox="0 0 920.000000 980.000000"
 preserveAspectRatio="xMidYMid meet">

<g transform="translate(0.000000,980.000000) scale(0.100000,-0.100000)"
fill="#ffd034" stroke="none">
<path d="M4410 9794 c-319 -27 -534 -68 -785 -151 -984 -321 -1747 -1124
-1995 -2098 -69 -271 -91 -446 -91 -730 0 -222 16 -394 56 -585 30 -141 83
-326 120 -419 14 -36 25 -70 25 -77 0 -7 40 -93 90 -191 74 -147 223 -386 868
-1393 l779 -1215 -41 -6 c-22 -4 -99 -15 -171 -24 -432 -56 -896 -185 -1247
-346 -513 -235 -822 -534 -909 -879 -18 -72 -21 -104 -17 -220 4 -119 9 -147
38 -234 56 -165 172 -329 329 -463 214 -183 571 -361 954 -477 593 -180 1267
-271 2067 -280 615 -7 1092 27 1600 115 1308 226 2030 715 2030 1373 0 250
-87 442 -295 652 -126 126 -257 222 -435 317 -204 109 -533 229 -844 308 -141
36 -170 40 -177 28 -4 -8 -125 -196 -268 -419 -143 -222 -259 -406 -257 -407
1 -1 68 -16 148 -33 276 -57 542 -135 763 -222 177 -70 395 -193 394 -223 0
-30 -169 -134 -334 -205 -397 -172 -999 -294 -1675 -341 -225 -16 -835 -16
-1060 0 -697 48 -1292 172 -1700 353 -160 71 -308 163 -309 193 -1 31 215 158
380 224 288 113 688 215 1064 270 165 24 454 55 459 50 2 -2 145 -230 318
-506 l315 -501 1334 2155 c734 1186 1360 2203 1391 2261 172 321 289 702 329
1072 16 155 13 472 -6 630 -86 710 -418 1352 -949 1839 -471 432 -1062 703
-1711 786 -116 15 -482 27 -575 19z m416 -1389 c135 -24 241 -59 371 -125 363
-182 613 -507 690 -897 23 -119 23 -347 0 -466 -50 -250 -166 -466 -352 -652
-251 -252 -574 -385 -935 -385 -154 0 -283 20 -419 66 -419 140 -733 469 -846
886 -93 342 -28 718 177 1023 66 99 218 254 318 324 168 118 376 201 590 234
69 11 325 6 406 -8z"/>
</g>
</svg>
