<?xml version="1.0" standalone="no"?>
<!DOCTYPE svg PUBLIC "-//W3C//DTD SVG 20010904//EN"
 "http://www.w3.org/TR/2001/REC-SVG-20010904/DTD/svg10.dtd">
<svg version="1.0" xmlns="http://www.w3.org/2000/svg"
 width="981.000000pt" height="980.000000pt" viewBox="0 0 981.000000 980.000000"
 preserveAspectRatio="xMidYMid meet">

<g transform="translate(0.000000,980.000000) scale(0.100000,-0.100000)"
fill="#ffd034" stroke="none">
<path d="M4815 9791 c-95 -25 -182 -104 -206 -188 -11 -38 -14 -154 -14 -573
0 -593 0 -590 71 -669 62 -69 127 -96 229 -95 96 0 159 27 219 94 74 82 71 51
71 670 0 619 3 588 -71 670 -53 58 -121 90 -202 95 -37 2 -80 1 -97 -4z"/>
<path d="M1632 8462 c-111 -40 -196 -166 -197 -293 0 -58 4 -72 35 -123 20
-31 90 -116 155 -188 147 -160 565 -563 629 -605 151 -100 386 3 425 187 17
81 14 142 -11 188 -28 50 -148 187 -380 430 -211 221 -381 380 -427 399 -58
25 -168 27 -229 5z"/>
<path d="M7942 8465 c-23 -7 -59 -26 -80 -41 -62 -48 -215 -199 -402 -399
-254 -272 -349 -384 -362 -428 -14 -47 0 -163 26 -219 65 -136 266 -207 386
-136 57 33 325 283 528 492 268 277 319 351 309 454 -10 116 -96 235 -195 272
-61 23 -146 25 -210 5z"/>
<path d="M4640 7609 c-515 -35 -1060 -276 -1491 -661 -419 -375 -727 -927
-818 -1468 -60 -355 -42 -820 44 -1114 89 -305 306 -687 636 -1116 523 -681
650 -885 768 -1231 48 -142 55 -158 79 -164 40 -11 1774 -17 1940 -7 107 6
146 12 153 23 5 8 30 77 55 154 98 294 223 511 530 917 66 86 178 235 251 330
359 474 552 828 638 1169 74 290 85 672 29 1004 -179 1066 -1000 1916 -2058
2130 -197 40 -477 52 -756 34z"/>
<path d="M390 5291 c-85 -10 -130 -32 -185 -93 -106 -118 -98 -291 20 -417 77
-82 80 -83 405 -93 157 -5 395 -8 530 -6 l245 3 66 31 c115 55 173 133 185
251 13 125 -54 241 -174 300 l-57 28 -485 1 c-267 1 -514 -1 -550 -5z"/>
<path d="M8449 5291 c-157 -6 -152 -4 -227 -75 -70 -66 -97 -126 -97 -221 0
-94 24 -155 87 -216 87 -85 160 -99 513 -98 389 0 704 14 745 32 48 21 125
102 152 162 18 39 23 68 23 130 0 70 -4 87 -30 134 -35 63 -103 126 -154 142
-40 13 -762 20 -1012 10z"/>
<path d="M2293 2761 c-64 -22 -80 -36 -382 -335 -269 -266 -398 -405 -439
-475 -24 -41 -27 -56 -27 -141 0 -110 15 -148 87 -216 63 -61 101 -77 194 -82
76 -4 86 -2 135 24 60 33 460 411 635 600 174 188 200 237 192 353 -10 137
-89 242 -206 275 -74 20 -124 20 -189 -3z"/>
<path d="M7307 2766 c-180 -50 -271 -270 -181 -435 37 -69 232 -279 485 -520
311 -297 359 -328 477 -301 73 16 104 32 159 83 60 55 94 126 101 204 4 56 1
70 -26 126 -39 79 -140 194 -389 444 -224 225 -384 370 -428 389 -49 20 -144
25 -198 10z"/>
<path d="M4087 1511 c-125 -5 -202 -12 -209 -19 -41 -41 -35 -550 8 -715 23
-89 84 -225 139 -308 59 -89 208 -240 290 -294 200 -132 395 -184 635 -172
247 13 461 104 641 274 197 187 306 408 330 670 14 161 9 499 -9 529 -8 16
-25 24 -59 28 -77 9 -1550 15 -1766 7z"/>
</g>
</svg>
