<?xml version="1.0" standalone="no"?>
<!DOCTYPE svg PUBLIC "-//W3C//DTD SVG 20010904//EN"
 "http://www.w3.org/TR/2001/REC-SVG-20010904/DTD/svg10.dtd">
<svg version="1.0" xmlns="http://www.w3.org/2000/svg"
 width="378.000000pt" height="378.000000pt" viewBox="0 0 378.000000 378.000000"
 preserveAspectRatio="xMidYMid meet">

<g transform="translate(0.000000,378.000000) scale(0.100000,-0.100000)"
fill="#ffd034" stroke="none">
<path d="M1831 3606 l-62 -154 -47 -6 c-26 -3 -100 -8 -165 -12 -65 -4 -120
-10 -122 -14 -2 -4 51 -54 120 -111 82 -69 124 -111 124 -124 0 -11 -17 -89
-38 -172 -21 -84 -37 -153 -36 -153 2 0 69 41 149 91 l146 91 138 -85 c75 -46
142 -87 148 -91 7 -3 -5 62 -27 147 -21 83 -38 161 -38 172 0 13 42 55 124
124 69 57 122 107 120 111 -2 4 -57 10 -122 14 -65 4 -139 9 -165 12 l-47 6
-62 154 c-35 85 -66 154 -69 154 -3 0 -34 -69 -69 -154z"/>
<path d="M430 3373 c0 -5 9 -71 20 -148 11 -77 20 -149 20 -162 0 -17 -30 -42
-135 -114 -74 -51 -135 -95 -135 -99 0 -4 74 -20 165 -35 l164 -29 20 -66 c11
-36 32 -109 47 -162 15 -54 30 -98 33 -98 3 0 42 67 85 149 l79 148 169 -5
c92 -3 168 -1 168 4 0 4 -52 60 -115 125 l-115 116 36 99 c60 164 76 215 71
220 -3 3 -40 -12 -83 -34 -44 -21 -111 -54 -151 -72 l-71 -32 -130 101 c-127
99 -142 109 -142 94z"/>
<path d="M3235 3284 c-66 -52 -125 -97 -131 -100 -6 -3 -78 27 -159 65 -82 39
-150 69 -153 66 -3 -2 21 -75 52 -162 l56 -157 -115 -116 c-63 -64 -115 -120
-115 -125 0 -4 76 -6 168 -3 l169 5 79 -148 c43 -82 82 -149 85 -149 4 0 48
141 90 295 l9 31 165 29 c91 15 165 31 165 35 0 4 -61 48 -135 99 -105 72
-135 97 -135 114 0 13 9 85 20 162 23 162 22 155 13 155 -5 -1 -62 -44 -128
-96z"/>
<path d="M1744 2629 c-859 -77 -1539 -784 -1580 -1644 -5 -109 -4 -123 15
-152 45 -71 137 -82 194 -24 30 29 31 34 43 173 20 232 56 371 143 554 77 161
152 265 291 405 294 295 639 439 1050 439 411 0 756 -144 1050 -439 139 -140
214 -244 291 -405 87 -183 123 -322 143 -554 12 -139 13 -144 43 -173 57 -58
149 -47 194 24 19 29 20 43 15 152 -26 554 -319 1063 -788 1369 -240 156 -514
250 -808 276 -128 11 -164 11 -296 -1z"/>
<path d="M1758 1894 c-77 -18 -150 -57 -205 -107 -87 -81 -123 -174 -123 -329
0 -71 -4 -95 -22 -130 -19 -35 -23 -59 -23 -128 0 -77 4 -93 39 -170 21 -47
59 -121 86 -165 66 -110 90 -160 90 -187 1 -43 38 -106 81 -138 64 -46 135
-63 244 -58 161 7 244 66 263 190 7 44 24 81 80 170 39 62 88 149 109 193 35
74 38 87 38 170 0 78 -3 95 -25 129 -21 35 -24 53 -26 150 -3 140 -24 203 -96
281 -56 61 -154 115 -246 134 -71 15 -194 13 -264 -5z"/>
<path d="M1365 438 c-55 -28 -181 -82 -280 -120 -195 -75 -251 -105 -265 -144
-6 -14 -13 -56 -16 -95 l-7 -69 458 0 458 0 -7 57 c-15 128 -91 276 -193 375
l-48 46 -100 -50z"/>
<path d="M2278 432 c-66 -70 -90 -103 -128 -181 -31 -61 -60 -165 -60 -213 l0
-28 456 0 457 0 -7 69 c-3 39 -10 81 -16 95 -14 39 -70 69 -265 144 -99 38
-226 92 -281 120 l-102 51 -54 -57z"/>
</g>
</svg>
