<?xml version="1.0" standalone="no"?>
<!DOCTYPE svg PUBLIC "-//W3C//DTD SVG 20010904//EN"
 "http://www.w3.org/TR/2001/REC-SVG-20010904/DTD/svg10.dtd">
<svg version="1.0" xmlns="http://www.w3.org/2000/svg"
 width="796.000000pt" height="794.000000pt" viewBox="0 0 796.000000 794.000000"
 preserveAspectRatio="xMidYMid meet">

<g transform="translate(0.000000,794.000000) scale(0.100000,-0.100000)"
fill="#ffd034" stroke="none">
<path d="M3640 7919 c-402 -29 -896 -147 -1280 -304 -807 -331 -1496 -927
-1900 -1644 -310 -551 -453 -1121 -437 -1741 15 -545 144 -1025 410 -1525 101
-189 264 -430 397 -585 59 -69 76 -102 96 -187 12 -49 14 -91 10 -149 -24
-295 -174 -600 -550 -1118 -90 -124 -172 -246 -182 -271 -33 -87 6 -217 88
-290 69 -63 138 -89 250 -93 307 -13 672 91 1091 310 243 127 282 151 846 506
122 77 147 89 170 82 366 -109 588 -156 896 -192 171 -20 743 -16 925 6 933
113 1771 506 2403 1125 530 519 874 1148 1011 1846 65 333 73 764 20 1120 -69
465 -255 943 -530 1362 -361 549 -878 1000 -1504 1313 -478 239 -1031 391
-1569 430 -147 11 -510 10 -661 -1z m-1040 -1731 c18 -13 42 -34 52 -48 10
-14 196 -537 413 -1163 310 -891 395 -1147 395 -1185 0 -39 -6 -58 -31 -91
-77 -108 -223 -100 -286 14 -12 22 -62 157 -111 300 -50 143 -94 268 -97 278
-7 16 -36 17 -420 17 -384 0 -413 -1 -420 -17 -3 -10 -47 -135 -97 -278 -95
-277 -118 -327 -159 -357 -109 -81 -273 3 -271 137 1 28 131 419 378 1131 432
1251 408 1184 436 1219 53 67 153 87 218 43z m2841 -1203 c42 -22 76 -70 88
-125 6 -28 11 -123 11 -210 l0 -160 443 0 c439 0 443 0 487 -22 103 -52 129
-178 55 -266 -43 -51 -80 -62 -212 -62 l-119 0 -53 -160 c-81 -245 -238 -548
-388 -747 -32 -43 -97 -123 -145 -177 l-87 -100 102 -75 c136 -101 277 -189
420 -262 144 -74 177 -110 177 -196 0 -62 -17 -100 -60 -137 -44 -36 -100 -50
-152 -35 -118 31 -417 211 -659 397 l-97 73 -81 -60 c-184 -136 -438 -273
-671 -362 -159 -60 -197 -64 -265 -25 -77 46 -104 129 -66 211 28 61 57 81
184 129 192 73 356 160 534 283 l93 64 -110 124 c-122 138 -232 282 -306 401
-47 75 -49 82 -49 149 0 83 23 123 90 155 51 25 98 25 151 1 35 -16 55 -39
127 -147 83 -126 258 -345 331 -413 l36 -35 31 30 c121 113 329 417 419 608
53 115 120 278 120 295 0 8 -205 11 -765 11 -843 0 -804 -3 -862 63 -76 86
-45 220 61 268 38 17 73 19 484 19 l442 0 0 165 c0 173 10 247 38 280 60 70
147 89 223 50z"/>
<path d="M2421 5233 c-52 -147 -118 -337 -147 -420 l-53 -153 293 0 293 0
-143 413 c-79 226 -145 416 -146 420 -2 4 -45 -113 -97 -260z"/>
</g>
</svg>
