<?xml version="1.0" standalone="no"?>
<!DOCTYPE svg PUBLIC "-//W3C//DTD SVG 20010904//EN"
 "http://www.w3.org/TR/2001/REC-SVG-20010904/DTD/svg10.dtd">
<svg version="1.0" xmlns="http://www.w3.org/2000/svg"
 width="433.000000pt" height="434.000000pt" viewBox="0 0 433.000000 434.000000"
 preserveAspectRatio="xMidYMid meet">

<g transform="translate(0.000000,434.000000) scale(0.100000,-0.100000)"
fill="#ffd034" stroke="none">
<path d="M1950 4230 c-238 -33 -471 -118 -665 -244 -420 -273 -691 -734 -721
-1226 l-7 -105 128 -53 c70 -29 128 -52 130 -50 1 2 10 71 19 153 23 196 36
241 83 287 66 64 84 68 347 68 l234 0 53 -28 c86 -45 107 -88 130 -273 11 -85
22 -155 24 -157 2 -2 77 27 167 64 193 82 241 88 322 40 53 -31 68 -52 201
-285 95 -166 107 -207 86 -287 -16 -60 -40 -85 -178 -189 l-123 -93 112 -83
c170 -126 205 -162 224 -227 25 -85 15 -116 -103 -322 -117 -204 -139 -234
-198 -261 -73 -34 -127 -26 -286 41 -78 33 -143 59 -144 58 -1 -2 -12 -79 -24
-172 -12 -93 -29 -185 -37 -205 -33 -80 -111 -130 -201 -131 -29 0 -53 -2 -53
-5 0 -16 44 -87 87 -140 108 -133 263 -232 433 -277 84 -23 90 -23 775 -23
l690 0 65 31 c84 40 144 100 183 182 l32 67 3 481 3 481 162 44 c167 45 207
66 207 108 0 12 -83 201 -185 422 l-185 401 0 220 c0 429 -75 700 -281 1008
-83 124 -282 324 -407 409 -179 121 -403 215 -612 256 -99 20 -391 28 -490 15z"/>
<path d="M1022 2886 c-15 -19 -24 -67 -42 -221 -13 -107 -26 -199 -29 -203 -4
-4 -32 -24 -63 -44 l-57 -38 -166 70 c-159 67 -205 79 -232 62 -7 -4 -58 -86
-113 -182 -83 -144 -100 -181 -98 -209 3 -32 16 -44 158 -153 85 -65 160 -122
166 -126 7 -4 14 -40 16 -81 l4 -74 -152 -114 c-121 -90 -154 -121 -159 -144
-5 -24 9 -55 90 -196 106 -184 128 -213 161 -213 12 0 105 35 208 79 l185 79
63 -32 c35 -17 64 -31 66 -32 1 -1 13 -86 26 -189 21 -159 27 -191 45 -209 21
-20 31 -21 236 -21 203 0 216 1 235 20 17 17 24 53 45 215 14 107 25 200 25
206 0 6 29 29 64 51 l63 40 176 -73 c192 -81 206 -83 244 -27 56 80 193 333
193 354 0 32 -31 61 -202 189 -133 99 -138 104 -138 139 0 20 -3 52 -6 72 l-6
36 128 98 c169 129 184 143 184 176 0 17 -41 98 -103 205 -83 144 -108 179
-130 187 -25 8 -56 -2 -221 -72 l-192 -81 -65 35 -66 35 -11 87 c-7 49 -17
132 -23 185 -18 145 -4 138 -269 138 l-219 0 -19 -24z m401 -815 c151 -73 211
-250 136 -399 -49 -99 -128 -152 -240 -160 -85 -6 -152 16 -213 69 -173 153
-119 423 101 505 53 20 159 13 216 -15z"/>
</g>
</svg>
